<svg xmlns="http://www.w3.org/2000/svg" xmlns:xlink="http://www.w3.org/1999/xlink" width="80" zoomAndPan="magnify" viewBox="0 0 60 60" height="80" preserveAspectRatio="xMidYMid meet" version="1.0"><defs><clipPath id="533900ca65"><path d="M 0.710938 0.710938 L 59.210938 0.710938 L 59.210938 59.210938 L 0.710938 59.210938 Z M 0.710938 0.710938 " clip-rule="nonzero"/></clipPath><clipPath id="7370df2e51"><path d="M 29.996094 0.710938 C 13.824219 0.710938 0.710938 13.824219 0.710938 29.996094 C 0.710938 46.171875 13.824219 59.28125 29.996094 59.28125 C 46.171875 59.28125 59.28125 46.171875 59.28125 29.996094 C 59.28125 13.824219 46.171875 0.710938 29.996094 0.710938 Z M 29.996094 0.710938 " clip-rule="nonzero"/></clipPath><clipPath id="25c29981b0"><path d="M 13 26 L 47 26 L 47 49.664062 L 13 49.664062 Z M 13 26 " clip-rule="nonzero"/></clipPath><clipPath id="27a5c4d4f2"><path d="M 11.367188 10.664062 L 48.867188 10.664062 L 48.867188 36 L 11.367188 36 Z M 11.367188 10.664062 " clip-rule="nonzero"/></clipPath></defs><g clip-path="url(#533900ca65)"><g clip-path="url(#7370df2e51)"><path stroke-linecap="butt" transform="matrix(0.75, 0, 0, 0.75, 0.7125, 0.712502)" fill="none" stroke-linejoin="miter" d="M 39.044793 -0.00208596 C 17.482292 -0.00208596 -0.00208329 17.48229 -0.00208329 39.044791 C -0.00208329 60.6125 17.482292 78.091667 39.044793 78.091667 C 60.612503 78.091667 78.09167 60.6125 78.09167 39.044791 C 78.09167 17.48229 60.612503 -0.00208596 39.044793 -0.00208596 Z M 39.044793 -0.00208596 " stroke="#b4b4b4" stroke-width="4" stroke-opacity="1" stroke-miterlimit="4"/></g></g><g clip-path="url(#25c29981b0)"><path fill="#435b94" d="M 13.078125 49.339844 L 13.078125 38.449219 L 22.183594 38.449219 L 22.183594 49.339844 Z M 34.066406 49.339844 L 34.066406 33.765625 L 25.089844 33.765625 L 25.089844 49.339844 Z M 46.210938 49.339844 L 46.210938 26.765625 L 37.101562 26.765625 L 37.101562 49.339844 Z M 46.210938 49.339844 " fill-opacity="1" fill-rule="nonzero"/></g><g clip-path="url(#27a5c4d4f2)"><path fill="#435b94" d="M 12.769531 35.140625 C 12.28125 34.957031 11.402344 34.46875 11.671875 33.324219 C 11.867188 32.519531 12.535156 31.914062 13.34375 31.734375 C 16.695312 30.96875 28.710938 27.417969 43.570312 13.566406 L 41.65625 11.585938 L 48.585938 10.664062 L 47.664062 17.132812 L 45.683594 15.550781 C 45.683594 15.550781 32.988281 29.582031 13.332031 35.160156 C 13.144531 35.214844 12.957031 35.207031 12.769531 35.140625 Z M 12.769531 35.140625 " fill-opacity="1" fill-rule="nonzero"/></g></svg>