<svg xmlns="http://www.w3.org/2000/svg" xmlns:xlink="http://www.w3.org/1999/xlink" width="80" zoomAndPan="magnify" viewBox="0 0 60 60" height="80" preserveAspectRatio="xMidYMid meet" version="1.0"><defs><g/><clipPath id="bb33e4e2b0"><path d="M 30 0 L 34.222656 3.332031 L 39.269531 1.46875 L 42.257812 5.941406 L 47.632812 5.730469 L 49.09375 10.90625 L 54.269531 12.367188 L 54.058594 17.742188 L 58.53125 20.730469 L 56.667969 25.777344 L 60 30 L 56.667969 34.222656 L 58.53125 39.269531 L 54.058594 42.257812 L 54.269531 47.632812 L 49.09375 49.09375 L 47.632812 54.269531 L 42.257812 54.058594 L 39.269531 58.53125 L 34.222656 56.667969 L 30 60 L 25.777344 56.667969 L 20.730469 58.53125 L 17.742188 54.058594 L 12.367188 54.269531 L 10.90625 49.09375 L 5.730469 47.632812 L 5.941406 42.257812 L 1.46875 39.269531 L 3.332031 34.222656 L 0 30 L 3.332031 25.777344 L 1.46875 20.730469 L 5.941406 17.742188 L 5.730469 12.367188 L 10.90625 10.90625 L 12.367188 5.730469 L 17.742188 5.941406 L 20.730469 1.46875 L 25.777344 3.332031 Z M 30 0 " clip-rule="nonzero"/></clipPath></defs><g clip-path="url(#bb33e4e2b0)"><path stroke-linecap="butt" transform="matrix(0.75, 0, 0, 0.75, -0.000000000000005329, 0.000002)" fill="none" stroke-linejoin="miter" d="M 40.000002 -0.00000266667 L 45.63021 4.442706 L 52.359377 1.958331 L 56.343752 7.921873 L 63.510419 7.640623 L 65.458336 14.541665 L 72.359378 16.489581 L 72.078128 23.656248 L 78.04167 27.640623 L 75.557295 34.36979 L 80.000003 39.999999 L 75.557295 45.630208 L 78.04167 52.359375 L 72.078128 56.34375 L 72.359378 63.510417 L 65.458336 65.458333 L 63.510419 72.359375 L 56.343752 72.078125 L 52.359377 78.041667 L 45.63021 75.557292 L 40.000002 80.000001 L 34.369793 75.557292 L 27.640626 78.041667 L 23.656251 72.078125 L 16.489584 72.359375 L 14.541667 65.458333 L 7.640625 63.510417 L 7.921875 56.34375 L 1.958333 52.359375 L 4.442709 45.630208 L 0.000000000000007105 39.999999 L 4.442709 34.36979 L 1.958333 27.640623 L 7.921875 23.656248 L 7.640625 16.489581 L 14.541667 14.541665 L 16.489584 7.640623 L 23.656251 7.921873 L 27.640626 1.958331 L 34.369793 4.442706 Z M 40.000002 -0.00000266667 " stroke="#b4b4b4" stroke-width="4" stroke-opacity="1" stroke-miterlimit="4"/></g><g fill="#435b94" fill-opacity="1"><g transform="translate(7.555639, 42.286893)"><g><path d="M 1.8125 -18.65625 C 1.90625 -21.195312 2.734375 -23.15625 4.296875 -24.53125 C 5.867188 -25.90625 8 -26.59375 10.6875 -26.59375 C 12.46875 -26.59375 13.988281 -26.285156 15.25 -25.671875 C 16.519531 -25.054688 17.484375 -24.210938 18.140625 -23.140625 C 18.796875 -22.078125 19.125 -20.878906 19.125 -19.546875 C 19.125 -17.984375 18.726562 -16.707031 17.9375 -15.71875 C 17.15625 -14.738281 16.242188 -14.066406 15.203125 -13.703125 L 15.203125 -13.5625 C 16.554688 -13.113281 17.625 -12.363281 18.40625 -11.3125 C 19.1875 -10.269531 19.578125 -8.929688 19.578125 -7.296875 C 19.578125 -5.828125 19.238281 -4.523438 18.5625 -3.390625 C 17.894531 -2.265625 16.910156 -1.378906 15.609375 -0.734375 C 14.316406 -0.0976562 12.78125 0.21875 11 0.21875 C 8.15625 0.21875 5.882812 -0.476562 4.1875 -1.875 C 2.488281 -3.28125 1.59375 -5.394531 1.5 -8.21875 L 7.40625 -8.21875 C 7.425781 -7.175781 7.722656 -6.351562 8.296875 -5.75 C 8.867188 -5.144531 9.703125 -4.84375 10.796875 -4.84375 C 11.710938 -4.84375 12.425781 -5.109375 12.9375 -5.640625 C 13.445312 -6.179688 13.703125 -6.890625 13.703125 -7.765625 C 13.703125 -8.898438 13.335938 -9.722656 12.609375 -10.234375 C 11.890625 -10.742188 10.738281 -11 9.15625 -11 L 8.015625 -11 L 8.015625 -15.953125 L 9.15625 -15.953125 C 10.363281 -15.953125 11.34375 -16.160156 12.09375 -16.578125 C 12.84375 -16.992188 13.21875 -17.734375 13.21875 -18.796875 C 13.21875 -19.648438 12.976562 -20.316406 12.5 -20.796875 C 12.019531 -21.273438 11.367188 -21.515625 10.546875 -21.515625 C 9.640625 -21.515625 8.96875 -21.238281 8.53125 -20.6875 C 8.09375 -20.144531 7.835938 -19.46875 7.765625 -18.65625 Z M 1.8125 -18.65625 "/></g></g></g><g fill="#435b94" fill-opacity="1"><g transform="translate(29.10294, 42.286893)"><g><path d="M 1.609375 -13.359375 C 1.609375 -17.441406 2.394531 -20.65625 3.96875 -23 C 5.550781 -25.351562 8.097656 -26.53125 11.609375 -26.53125 C 15.117188 -26.53125 17.660156 -25.351562 19.234375 -23 C 20.816406 -20.65625 21.609375 -17.441406 21.609375 -13.359375 C 21.609375 -9.222656 20.816406 -5.976562 19.234375 -3.625 C 17.660156 -1.28125 15.117188 -0.109375 11.609375 -0.109375 C 8.097656 -0.109375 5.550781 -1.28125 3.96875 -3.625 C 2.394531 -5.976562 1.609375 -9.222656 1.609375 -13.359375 Z M 15.625 -13.359375 C 15.625 -15.753906 15.363281 -17.597656 14.84375 -18.890625 C 14.320312 -20.179688 13.242188 -20.828125 11.609375 -20.828125 C 9.972656 -20.828125 8.890625 -20.179688 8.359375 -18.890625 C 7.835938 -17.597656 7.578125 -15.753906 7.578125 -13.359375 C 7.578125 -11.742188 7.671875 -10.40625 7.859375 -9.34375 C 8.054688 -8.289062 8.445312 -7.4375 9.03125 -6.78125 C 9.613281 -6.125 10.472656 -5.796875 11.609375 -5.796875 C 12.742188 -5.796875 13.601562 -6.125 14.1875 -6.78125 C 14.769531 -7.4375 15.15625 -8.289062 15.34375 -9.34375 C 15.53125 -10.40625 15.625 -11.742188 15.625 -13.359375 Z M 15.625 -13.359375 "/></g></g></g></svg>