<svg xmlns="http://www.w3.org/2000/svg" xmlns:xlink="http://www.w3.org/1999/xlink" width="1080" zoomAndPan="magnify" viewBox="0 0 810 809.999993" height="1080" preserveAspectRatio="xMidYMid meet" version="1.0"><defs><clipPath id="b2282803bd"><path d="M 239.644531 10.132812 L 794.644531 10.132812 L 794.644531 565.132812 L 239.644531 565.132812 Z M 239.644531 10.132812 " clip-rule="nonzero"/></clipPath><clipPath id="e4991f7905"><path d="M 314.640625 10.132812 L 719.832031 10.132812 C 761.253906 10.132812 794.832031 43.710938 794.832031 85.132812 L 794.832031 490.320312 C 794.832031 531.742188 761.253906 565.320312 719.832031 565.320312 L 314.640625 565.320312 C 273.222656 565.320312 239.644531 531.742188 239.644531 490.320312 L 239.644531 85.132812 C 239.644531 43.710938 273.222656 10.132812 314.640625 10.132812 Z M 314.640625 10.132812 " clip-rule="nonzero"/></clipPath><clipPath id="0cf9687496"><path d="M 15.160156 370.265625 L 441.160156 370.265625 L 441.160156 796.265625 L 15.160156 796.265625 Z M 15.160156 370.265625 " clip-rule="nonzero"/></clipPath><clipPath id="8499c358d7"><path d="M 90.160156 370.265625 L 366.171875 370.265625 C 407.59375 370.265625 441.171875 403.84375 441.171875 445.265625 L 441.171875 721.277344 C 441.171875 762.699219 407.59375 796.277344 366.171875 796.277344 L 90.160156 796.277344 C 48.738281 796.277344 15.160156 762.699219 15.160156 721.277344 L 15.160156 445.265625 C 15.160156 403.84375 48.738281 370.265625 90.160156 370.265625 Z M 90.160156 370.265625 " clip-rule="nonzero"/></clipPath><clipPath id="39ec5d4b84"><path d="M 452.539062 625.398438 L 520.789062 625.398438 L 520.789062 694.398438 L 452.539062 694.398438 Z M 452.539062 625.398438 " clip-rule="nonzero"/></clipPath><clipPath id="ef25a8f034"><path d="M 457.039062 625.398438 L 516.03125 625.398438 C 517.222656 625.398438 518.367188 625.871094 519.210938 626.714844 C 520.054688 627.558594 520.53125 628.703125 520.53125 629.894531 L 520.53125 690.15625 C 520.53125 691.347656 520.054688 692.492188 519.210938 693.335938 C 518.367188 694.179688 517.222656 694.65625 516.03125 694.65625 L 457.039062 694.65625 C 455.847656 694.65625 454.703125 694.179688 453.859375 693.335938 C 453.015625 692.492188 452.539062 691.347656 452.539062 690.15625 L 452.539062 629.894531 C 452.539062 628.703125 453.015625 627.558594 453.859375 626.714844 C 454.703125 625.871094 455.847656 625.398438 457.039062 625.398438 Z M 457.039062 625.398438 " clip-rule="nonzero"/></clipPath><clipPath id="9443684876"><path d="M 452.539062 708.5625 L 520.789062 708.5625 L 520.789062 777.5625 L 452.539062 777.5625 Z M 452.539062 708.5625 " clip-rule="nonzero"/></clipPath><clipPath id="fd0e01c89b"><path d="M 457.039062 708.5625 L 516.03125 708.5625 C 517.222656 708.5625 518.367188 709.035156 519.210938 709.878906 C 520.054688 710.722656 520.53125 711.867188 520.53125 713.0625 L 520.53125 773.320312 C 520.53125 774.515625 520.054688 775.65625 519.210938 776.5 C 518.367188 777.34375 517.222656 777.820312 516.03125 777.820312 L 457.039062 777.820312 C 455.847656 777.820312 454.703125 777.34375 453.859375 776.5 C 453.015625 775.65625 452.539062 774.515625 452.539062 773.320312 L 452.539062 713.0625 C 452.539062 711.867188 453.015625 710.722656 453.859375 709.878906 C 454.703125 709.035156 455.847656 708.5625 457.039062 708.5625 Z M 457.039062 708.5625 " clip-rule="nonzero"/></clipPath><clipPath id="5742e9d6d5"><path d="M 532.226562 625.398438 L 600.472656 625.398438 L 600.472656 694.398438 L 532.226562 694.398438 Z M 532.226562 625.398438 " clip-rule="nonzero"/></clipPath><clipPath id="ac4b1e3bf0"><path d="M 536.722656 625.398438 L 595.714844 625.398438 C 596.90625 625.398438 598.050781 625.871094 598.894531 626.714844 C 599.738281 627.558594 600.214844 628.703125 600.214844 629.894531 L 600.214844 690.15625 C 600.214844 691.347656 599.738281 692.492188 598.894531 693.335938 C 598.050781 694.179688 596.90625 694.65625 595.714844 694.65625 L 536.722656 694.65625 C 535.53125 694.65625 534.386719 694.179688 533.542969 693.335938 C 532.699219 692.492188 532.226562 691.347656 532.226562 690.15625 L 532.226562 629.894531 C 532.226562 628.703125 532.699219 627.558594 533.542969 626.714844 C 534.386719 625.871094 535.53125 625.398438 536.722656 625.398438 Z M 536.722656 625.398438 " clip-rule="nonzero"/></clipPath></defs><g clip-path="url(#b2282803bd)"><g clip-path="url(#e4991f7905)"><path stroke-linecap="butt" transform="matrix(0.75, 0, 0, 0.75, 239.64339, 10.132637)" fill="none" stroke-linejoin="miter" d="M 99.996319 0.00023452 L 640.251554 0.00023452 C 695.480724 0.00023452 740.251559 44.77107 740.251559 100.00024 L 740.251559 640.250267 C 740.251559 695.479436 695.480724 740.250272 640.251554 740.250272 L 99.996319 740.250272 C 44.772357 740.250272 0.00152187 695.479436 0.00152187 640.250267 L 0.00152187 100.00024 C 0.00152187 44.77107 44.772357 0.00023452 99.996319 0.00023452 Z M 99.996319 0.00023452 " stroke="#b6b6b6" stroke-width="140" stroke-opacity="1" stroke-miterlimit="4"/></g></g><g clip-path="url(#0cf9687496)"><g clip-path="url(#8499c358d7)"><path stroke-linecap="butt" transform="matrix(0.75, 0, 0, 0.75, 15.159002, 370.266213)" fill="none" stroke-linejoin="miter" d="M 100.001544 -0.00078343 L 468.017187 -0.00078343 C 523.246357 -0.00078343 568.017192 44.770052 568.017192 99.999222 L 568.017192 468.014865 C 568.017192 523.244035 523.246357 568.01487 468.017187 568.01487 L 100.001544 568.01487 C 44.772374 568.01487 0.00153866 523.244035 0.00153866 468.014865 L 0.00153866 99.999222 C 0.00153866 44.770052 44.772374 -0.00078343 100.001544 -0.00078343 Z M 100.001544 -0.00078343 " stroke="#b6b6b6" stroke-width="140" stroke-opacity="1" stroke-miterlimit="4"/></g></g><g clip-path="url(#39ec5d4b84)"><g clip-path="url(#ef25a8f034)"><path stroke-linecap="butt" transform="matrix(0.75, 0, 0, 0.75, 452.540261, 625.396741)" fill="none" stroke-linejoin="miter" d="M 5.998402 0.00226262 L 84.654651 0.00226262 C 86.243193 0.00226262 87.769234 0.632471 88.894234 1.757471 C 90.019234 2.882471 90.654651 4.408513 90.654651 5.997054 L 90.654651 86.346011 C 90.654651 87.934553 90.019234 89.460595 88.894234 90.585595 C 87.769234 91.710595 86.243193 92.346011 84.654651 92.346011 L 5.998402 92.346011 C 4.409861 92.346011 2.883819 91.710595 1.758819 90.585595 C 0.633819 89.460595 -0.00159764 87.934553 -0.00159764 86.346011 L -0.00159764 5.997054 C -0.00159764 4.408513 0.633819 2.882471 1.758819 1.757471 C 2.883819 0.632471 4.409861 0.00226262 5.998402 0.00226262 Z M 5.998402 0.00226262 " stroke="#b6b6b6" stroke-width="92" stroke-opacity="1" stroke-miterlimit="4"/></g></g><g clip-path="url(#9443684876)"><g clip-path="url(#fd0e01c89b)"><path stroke-linecap="butt" transform="matrix(0.75, 0, 0, 0.75, 452.540261, 708.561896)" fill="none" stroke-linejoin="miter" d="M 5.998402 0.000804862 L 84.654651 0.000804862 C 86.243193 0.000804862 87.769234 0.631013 88.894234 1.756013 C 90.019234 2.881013 90.654651 4.407055 90.654651 6.000805 L 90.654651 86.344554 C 90.654651 87.938304 90.019234 89.459137 88.894234 90.584137 C 87.769234 91.709137 86.243193 92.344554 84.654651 92.344554 L 5.998402 92.344554 C 4.409861 92.344554 2.883819 91.709137 1.758819 90.584137 C 0.633819 89.459137 -0.00159764 87.938304 -0.00159764 86.344554 L -0.00159764 6.000805 C -0.00159764 4.407055 0.633819 2.881013 1.758819 1.756013 C 2.883819 0.631013 4.409861 0.000804862 5.998402 0.000804862 Z M 5.998402 0.000804862 " stroke="#b6b6b6" stroke-width="92" stroke-opacity="1" stroke-miterlimit="4"/></g></g><g clip-path="url(#5742e9d6d5)"><g clip-path="url(#ac4b1e3bf0)"><path stroke-linecap="butt" transform="matrix(0.75, 0, 0, 0.75, 532.224697, 625.396741)" fill="none" stroke-linejoin="miter" d="M 5.997279 0.00226262 L 84.653528 0.00226262 C 86.24207 0.00226262 87.768111 0.632471 88.893111 1.757471 C 90.018111 2.882471 90.653528 4.408513 90.653528 5.997054 L 90.653528 86.346011 C 90.653528 87.934553 90.018111 89.460595 88.893111 90.585595 C 87.768111 91.710595 86.24207 92.346011 84.653528 92.346011 L 5.997279 92.346011 C 4.408738 92.346011 2.882696 91.710595 1.757696 90.585595 C 0.632696 89.460595 0.0024877 87.934553 0.0024877 86.346011 L 0.0024877 5.997054 C 0.0024877 4.408513 0.632696 2.882471 1.757696 1.757471 C 2.882696 0.632471 4.408738 0.00226262 5.997279 0.00226262 Z M 5.997279 0.00226262 " stroke="#b6b6b6" stroke-width="92" stroke-opacity="1" stroke-miterlimit="4"/></g></g></svg>